<svg width="64" height="64" viewBox="0 0 64 64" fill="none" xmlns="http://www.w3.org/2000/svg">
<path d="M41 58.63V48C39.0511 48.5889 37.0346 48.925 35 49V52H33V49C30.9654 48.925 28.9489 48.5889 27 48V58.2L33.76 53.84L41 58.63Z" fill="#43C2E8"/>
<path d="M35 52V49C34.67 49 34.34 49 34 49C33.66 49 33.33 49 33 49V52H35Z" fill="white"/>
<path d="M56 25C56 20.6488 54.7097 16.3953 52.2923 12.7774C49.875 9.15957 46.439 6.33977 42.419 4.67464C38.3991 3.00952 33.9756 2.57384 29.708 3.42272C25.4404 4.27159 21.5204 6.36689 18.4437 9.44365C15.3669 12.5204 13.2716 16.4404 12.4227 20.708C11.5739 24.9756 12.0095 29.3991 13.6747 33.419C15.3398 37.439 18.1596 40.8749 21.7775 43.2923C25.3953 45.7097 29.6488 47 34 47C39.8348 47 45.4306 44.6821 49.5564 40.5563C53.6822 36.4305 56 30.8348 56 25ZM34 43C30.4399 43 26.9598 41.9443 23.9997 39.9664C21.0397 37.9886 18.7326 35.1774 17.3702 31.8883C16.0078 28.5992 15.6513 24.98 16.3459 21.4884C17.0404 17.9967 18.7547 14.7894 21.2721 12.2721C23.7894 9.75473 26.9967 8.04039 30.4884 7.34586C33.98 6.65133 37.5992 7.00779 40.8883 8.37016C44.1774 9.73254 46.9886 12.0396 48.9665 14.9997C50.9443 17.9598 52 21.4399 52 25C52 29.7739 50.1036 34.3523 46.7279 37.7279C43.3523 41.1036 38.7739 43 34 43V43Z" fill="#FFBB00"/>
<path d="M33.9998 1C29.9951 1.00151 26.0545 2.00507 22.537 3.91925C19.0195 5.83343 16.0368 8.59738 13.8609 11.9593C11.6849 15.3211 10.3847 19.1741 10.0789 23.167C9.77304 27.1599 10.4712 31.1659 12.1098 34.82C12.9048 36.5796 13.9123 38.2352 15.1098 39.75C17.693 43.0703 21.1036 45.6533 24.9998 47.24V61.84L27.8598 60L33.7398 56.21L39.6398 60.14L42.9998 62.37V47.24C46.8545 45.6723 50.2376 43.1333 52.8198 39.87C53.4093 39.1267 53.9536 38.3486 54.4498 37.54C54.9593 36.7212 55.4201 35.8731 55.8298 35C57.5061 31.3427 58.2361 27.3226 57.9527 23.3094C57.6693 19.2962 56.3816 15.4187 54.208 12.0332C52.0343 8.64778 49.0445 5.86308 45.5133 3.93514C41.9821 2.0072 38.023 0.997895 33.9998 1V1ZM33.9998 47C29.6486 47 25.3951 45.7097 21.7772 43.2923C18.1593 40.8749 15.3395 37.439 13.6744 33.419C12.0093 29.3991 11.5736 24.9756 12.4225 20.708C13.2714 16.4404 15.3667 12.5204 18.4434 9.44365C21.5202 6.3669 25.4402 4.2716 29.7078 3.42273C33.9754 2.57385 38.3988 3.00953 42.4188 4.67465C46.4388 6.33978 49.8747 9.15958 52.2921 12.7775C54.7095 16.3953 55.9998 20.6488 55.9998 25C55.9998 30.8348 53.6819 36.4306 49.5561 40.5564C45.4303 44.6822 39.8345 47 33.9998 47V47ZM26.9998 48C28.9487 48.5889 30.9652 48.925 32.9998 49C33.3298 49 33.6598 49 33.9998 49C34.3398 49 34.6698 49 34.9998 49C37.0343 48.925 39.0508 48.5889 40.9998 48V58.63L33.7598 53.8L26.9998 58.16V48Z" fill="black"/>
<path d="M50 25C50 21.8355 49.0616 18.7421 47.3035 16.1109C45.5454 13.4797 43.0466 11.4289 40.1229 10.2179C37.1993 9.00693 33.9823 8.69008 30.8786 9.30744C27.7749 9.92481 24.9239 11.4487 22.6863 13.6863C20.4487 15.9239 18.9248 18.7749 18.3074 21.8786C17.6901 24.9823 18.0069 28.1993 19.2179 31.1229C20.4289 34.0466 22.4797 36.5454 25.1109 38.3035C27.7421 40.0616 30.8355 41 34 41C38.2435 41 42.3131 39.3143 45.3137 36.3137C48.3143 33.3131 50 29.2435 50 25ZM42.2 35.09L42.75 37L41.05 35.87C38.9515 37.2335 36.5026 37.9592 34 37.9592C31.4974 37.9592 29.0485 37.2335 26.95 35.87L25.25 37L25.8 35.05C24.3054 33.8351 23.0994 32.3032 22.2692 30.5651C21.4391 28.827 21.0056 26.9262 21 25C21.0009 23.8749 21.1522 22.755 21.45 21.67L19.84 20.4L21.84 20.32C22.7408 17.9753 24.3015 15.9417 26.3335 14.4652C28.3655 12.9887 30.7817 12.1324 33.29 12L34 10.11L34.71 12C37.2067 12.1367 39.6111 12.9904 41.6348 14.459C43.6586 15.9276 45.2159 17.9487 46.12 20.28L48.12 20.36L46.51 21.63C46.8248 22.726 46.9897 23.8597 47 25C47.0004 26.9329 46.5697 28.8416 45.7393 30.587C44.909 32.3325 43.6999 33.8708 42.2 35.09Z" fill="white"/>
<path d="M52 25C52 21.4399 50.9443 17.9598 48.9665 14.9997C46.9886 12.0396 44.1774 9.73254 40.8883 8.37016C37.5992 7.00778 33.98 6.65132 30.4884 7.34586C26.9967 8.04039 23.7894 9.75473 21.2721 12.2721C18.7547 14.7894 17.0404 17.9967 16.3459 21.4884C15.6513 24.98 16.0078 28.5992 17.3702 31.8883C18.7326 35.1774 21.0397 37.9886 23.9997 39.9664C26.9598 41.9443 30.4399 43 34 43C38.7739 43 43.3523 41.1036 46.7279 37.7279C50.1036 34.3523 52 29.7739 52 25V25ZM34 41C30.8355 41 27.7421 40.0616 25.1109 38.3035C22.4797 36.5454 20.4289 34.0465 19.2179 31.1229C18.0069 28.1993 17.6901 24.9822 18.3074 21.8785C18.9248 18.7749 20.4487 15.9239 22.6863 13.6863C24.9239 11.4486 27.7749 9.92479 30.8786 9.30743C33.9823 8.69007 37.1993 9.00692 40.1229 10.2179C43.0466 11.4289 45.5454 13.4797 47.3035 16.1109C49.0616 18.7421 50 21.8355 50 25C50 29.2435 48.3143 33.3131 45.3137 36.3137C42.3131 39.3143 38.2435 41 34 41Z" fill="black"/>
<path d="M46.9999 25C46.999 23.8749 46.8477 22.755 46.5499 21.67L39.8999 26.92L42.1999 35.09C43.6998 33.8708 44.9089 32.3325 45.7392 30.587C46.5696 28.8415 47.0003 26.9329 46.9999 25V25Z" fill="#FFE545"/>
<path d="M21.45 21.67C21.1522 22.755 21.0009 23.8749 21 25C20.9996 26.9329 21.4303 28.8415 22.2607 30.587C23.091 32.3325 24.3001 33.8708 25.8 35.09L28.1 26.92L21.45 21.67Z" fill="#FFE545"/>
<path d="M27 35.91C29.0985 37.2735 31.5474 37.9991 34.05 37.9991C36.5526 37.9991 39.0015 37.2735 41.1 35.91L34 31.2L27 35.91Z" fill="#FFE545"/>
<path d="M30.3499 20L33.2899 12C30.7932 12.1366 28.3888 12.9904 26.365 14.459C24.3413 15.9276 22.784 17.9487 21.8799 20.28L30.3499 20Z" fill="#FFE545"/>
<path d="M37.65 20L46.12 20.34C45.2251 17.9975 43.6718 15.9638 41.6473 14.484C39.6228 13.0043 37.2136 12.1416 34.71 12L37.65 20Z" fill="#FFE545"/>
<path d="M42.6701 22.18L36.2301 21.93L34.0001 15.93L31.7701 21.93L25.3301 22.18L30.3901 26.18L28.6401 32.38L34.0001 28.8L39.3601 32.37L37.6101 26.17L42.6701 22.18ZM33.0001 26V23H35.0001V26H33.0001Z" fill="#FFBB00"/>
<path d="M46.5499 21.67L48.1599 20.4L46.1599 20.32L37.6499 20L34.7099 12L33.9999 10.11L33.2899 12L30.3499 20L21.8799 20.34L19.8799 20.42L21.4899 21.69L28.1399 26.94L25.8399 35.11L25.2499 37L26.9999 35.91L33.9999 31.2L40.9999 35.91L42.7499 37L42.1999 35.05L39.8999 26.88L46.5499 21.67ZM33.9999 28.8L28.6399 32.37L30.3899 26.17L25.3299 22.17L31.7699 21.92L33.9999 15.92L36.2299 21.92L42.6699 22.17L37.6099 26.17L39.3599 32.37L33.9999 28.8Z" fill="black"/>
<path d="M35 23H33V26H35V23Z" fill="#FFFB1A"/>
</svg>
