<svg width="43" height="61" viewBox="0 0 87 122" fill="none" xmlns="http://www.w3.org/2000/svg">
<path d="M43.0496 0C17.3001 0 0 14.7587 0 36.7246C0 65.8368 37.0148 118.325 37.3834 118.736C38.0961 119.532 38.9686 120.168 39.9439 120.605C40.9192 121.041 41.9754 121.266 43.0438 121.267C44.1122 121.267 45.1687 121.043 46.1444 120.608C47.1202 120.173 47.9932 119.537 48.7068 118.742C49.0807 118.325 86.0956 65.8368 86.0956 36.7246C86.0956 14.7587 68.7963 0 43.0496 0ZM43.0478 71.3722C37.4514 71.3721 31.9807 69.7126 27.3274 66.6034C22.6742 63.4942 19.0474 59.075 16.9058 53.9046C14.7642 48.7342 14.2038 43.0448 15.2956 37.556C16.3874 32.0671 19.0824 27.0252 23.0396 23.068C26.9969 19.1107 32.0387 16.4158 37.5276 15.324C43.0164 14.2322 48.7058 14.7925 53.8762 16.9342C59.0466 19.0758 63.4658 22.7026 66.575 27.3558C69.6842 32.009 71.3438 37.4798 71.3438 43.0762C71.3438 46.792 70.6119 50.4715 69.1899 53.9046C67.7679 57.3376 65.6836 60.4569 63.0561 63.0845C60.4286 65.712 57.3092 67.7963 53.8762 69.2183C50.4432 70.6403 46.7637 71.3722 43.0478 71.3722V71.3722Z" fill="#2D3E50"/>
</svg>
