<svg width="34" height="25" viewBox="0 0 34 25" fill="none" xmlns="http://www.w3.org/2000/svg">
<path d="M22 11C24.7614 11 27 8.76142 27 6C27 3.23858 24.7614 1 22 1C19.2386 1 17 3.23858 17 6C17 8.76142 19.2386 11 22 11Z" stroke="black" stroke-width="2" stroke-miterlimit="10" stroke-linecap="round" stroke-linejoin="round"/>
<path d="M10.0063 11C12.2155 11 14.0063 9.20914 14.0063 7C14.0063 4.79086 12.2155 3 10.0063 3C7.79719 3 6.00632 4.79086 6.00632 7C6.00632 9.20914 7.79719 11 10.0063 11Z" stroke="black" stroke-width="2" stroke-miterlimit="10" stroke-linecap="round" stroke-linejoin="round"/>
<path fill-rule="evenodd" clip-rule="evenodd" d="M2.08001 17.8748C3.55894 14.8243 6.58433 12.7234 10.1712 12.7234C11.5458 12.7234 12.846 13.0312 14.0063 13.5801V13L16.3042 12.5945C14.5578 11.414 12.4466 10.7234 10.1712 10.7234C5.58959 10.7234 1.78692 13.5182 0.083399 17.4306C-0.127599 17.9151 0.0755634 18.4756 0.537216 18.7162C1.23299 19.5993 2.94967 21.2444 4.25202 21.9719C6.05221 22.9776 8.05973 23.5023 10.0979 23.5L10.1506 23.4998L10.2032 23.5C12.2224 23.5023 14.2114 22.9873 15.9986 22H14.0063V21.0289C12.8193 21.498 11.5596 21.7444 10.2848 21.7528L10.1729 21.753C9.49751 21.7502 8.79047 21.6852 8.08795 21.5568C7.02443 21.3458 5.99335 20.9668 5.03069 20.429C3.8674 19.7791 2.90423 18.9124 2.08001 17.8748Z" fill="black"/>
<path fill-rule="evenodd" clip-rule="evenodd" d="M21.6003 12C17.4145 12 13.8868 14.4153 12.1425 17.9179C13.1183 19.1667 14.2641 20.2069 15.6587 20.9796C16.7714 21.5961 17.9631 22.0306 19.1924 22.2724C20.0043 22.4196 20.8215 22.4942 21.6021 22.4973C21.6452 22.4973 21.6883 22.4972 21.7315 22.4972C23.7411 22.4839 25.7183 21.9634 27.4941 20.9796C28.9062 20.1971 30.0633 19.1404 31.0471 17.8706C29.3806 14.4105 25.7861 12 21.6003 12ZM32.9265 18.6878C33.1893 18.4099 33.2799 17.9931 33.124 17.617C31.2715 13.1492 26.8107 10 21.6003 10C16.3762 10 12.0329 13.1602 10.0846 17.598C9.95877 17.8846 9.97814 18.1983 10.1106 18.4567C10.2656 19.0385 12.8837 21.7094 14.7587 22.7483C16.8394 23.9011 19.1597 24.5027 21.5155 24.5C21.5358 24.5 21.5561 24.4999 21.5764 24.4997C21.5967 24.4999 21.617 24.5 21.6372 24.5C23.993 24.5027 26.3134 23.9011 28.3941 22.7483C30.0832 21.8124 32.3753 19.5521 32.9265 18.6878Z" fill="black"/>
</svg>
