<svg width="1920" height="750" viewBox="0 0 1920 750" fill="none" xmlns="http://www.w3.org/2000/svg">
<g clip-path="url(#clip0_14_2)">
<path d="M1920 0H0V750H1920V0Z" fill="#0092E0"/>
<path d="M2502.16 -395.802C2625.96 -339.902 2623.86 -50.2015 2515.76 166.099C2407.66 382.499 2193.66 525.499 2269.06 711.999C2344.36 898.499 2709.06 1128.5 2781.36 1282.8C2853.56 1437.1 2633.36 1515.7 2434.16 1650.7C2234.96 1785.7 2056.86 1977.1 1935.06 1879.4C1813.36 1781.7 1747.96 1394.8 1603.06 1228.5C1458.16 1062.2 1233.66 1116.3 1191.86 1059.7C1149.96 1003.2 1290.86 835.798 1249.16 644.398C1207.36 452.998 983.159 237.498 1057.66 237.498C1132.16 237.498 1505.36 452.998 1692.06 433.398C1878.66 413.798 1878.66 159.198 2003.56 -57.2015C2128.46 -273.602 2378.36 -451.602 2502.16 -395.802Z" fill="#0F6FFF"/>
<path d="M-582.274 1171.95C-705.862 1116.05 -703.765 826.35 -595.85 610.05C-487.935 393.65 -274.302 250.65 -349.573 64.1499C-424.744 -122.35 -788.819 -352.35 -860.996 -506.65C-933.072 -660.95 -713.249 -739.55 -514.39 -874.55C-315.531 -1009.55 -137.736 -1200.95 -16.1442 -1103.25C105.347 -1005.55 170.636 -618.65 315.288 -452.35C459.94 -286.05 684.055 -340.15 725.784 -283.55C767.612 -227.05 626.953 -59.65 668.582 131.75C710.31 323.15 934.127 538.65 859.754 538.65C785.382 538.65 412.82 323.15 226.44 342.75C40.1592 362.35 40.1592 616.95 -84.527 833.35C-209.213 1049.75 -458.686 1227.75 -582.274 1171.95Z" fill="#0F6FFF"/>
</g>
<defs>
<clipPath id="clip0_14_2">
<rect width="1920" height="750" fill="white"/>
</clipPath>
</defs>
</svg>
