<svg width="38" height="45" viewBox="0 0 38 45" fill="none" xmlns="http://www.w3.org/2000/svg">
<path d="M37.8419 34.5715C37.6869 34.8177 37.5319 35.0456 37.3678 35.2827C35.3042 38.2402 32.5571 40.6557 29.36 42.3239C26.1628 43.9922 22.6101 44.8638 19.0039 44.8647C15.3976 44.8656 11.8445 43.9957 8.6465 42.3291C5.4485 40.6624 2.7002 38.2483 0.635208 35.2918C0.461978 35.0548 0.297878 34.8086 0.151978 34.5625C0.170228 34.4348 0.188476 34.3163 0.206676 34.1978C0.315283 33.5781 0.567223 32.9925 0.94239 32.4875C1.31756 31.9825 1.80556 31.5723 2.36747 31.2894C6.13276 29.4113 14.3746 26.6488 14.3746 26.6488V23.9228L14.1467 23.7496C12.5452 22.5261 11.4747 20.7344 11.1563 18.7443L11.1107 18.4526H10.8919C10.2875 18.4554 9.69612 18.2772 9.19399 17.9408C8.69186 17.6044 8.302 17.1254 8.0747 16.5653C7.79805 16.0726 7.65358 15.5167 7.65535 14.9517C7.6561 14.5682 7.72716 14.1881 7.86502 13.8302C7.93694 13.4367 8.15517 13.0849 8.47585 12.8456L9.24171 12.3898L9.05936 11.5692C7.71918 5.70697 12.1045 0.428222 18.1217 0.0543919C18.1607 0.0468221 18.2005 0.0437582 18.2402 0.0452614C18.3405 0.0361314 18.4408 0.0270615 18.5411 0.0270615H19.4528C19.5531 0.0270615 19.6534 0.0361314 19.7536 0.0452614C19.7934 0.0437561 19.8331 0.04682 19.8722 0.0543919C25.8986 0.428222 30.2839 5.70697 28.9436 11.5692L28.7522 12.3898L29.518 12.8456C29.8416 13.0822 30.0606 13.4352 30.1288 13.8302C30.2696 14.1876 30.3438 14.5676 30.3476 14.9517C30.345 15.5162 30.2008 16.071 29.9283 16.5653C29.701 17.1254 29.3111 17.6045 28.809 17.9408C28.3069 18.2772 27.7155 18.4555 27.1111 18.4526H26.8923L26.8376 18.7443C26.5265 20.7348 25.4584 22.5281 23.8563 23.7496L23.6284 23.9228V26.6488C23.6284 26.6488 31.8702 29.4113 35.6264 31.2894C36.1894 31.5708 36.6784 31.9806 37.0537 32.4859C37.4291 32.9911 37.6803 33.5775 37.7872 34.1978C37.8054 34.3163 37.8236 34.4439 37.8419 34.5715Z" fill="#0092E0"/>
</svg>
